<?xml version="1.0" standalone="no"?>
<!DOCTYPE svg PUBLIC "-//W3C//DTD SVG 20010904//EN"
 "http://www.w3.org/TR/2001/REC-SVG-20010904/DTD/svg10.dtd">
<svg version="1.0" xmlns="http://www.w3.org/2000/svg"
 width="1024.000000pt" height="1024.000000pt" viewBox="0 0 1024.000000 1024.000000"
 preserveAspectRatio="xMidYMid meet">
<metadata>
Created by potrace 1.14, written by Peter Selinger 2001-2017
</metadata>
<g transform="translate(0.000000,1024.000000) scale(0.100000,-0.100000)"
fill="#000000" stroke="none">
<path d="M0 5120 l0 -5120 5120 0 5120 0 0 5120 0 5120 -5120 0 -5120 0 0
-5120z m3835 3555 c24 -13 52 -40 63 -58 12 -18 95 -320 197 -716 96 -376 182
-695 190 -710 19 -39 93 -103 140 -123 22 -10 321 -81 665 -158 390 -87 642
-148 669 -162 51 -26 96 -89 106 -147 14 -82 -36 -180 -109 -215 -20 -9 -305
-77 -633 -152 -329 -74 -622 -141 -652 -150 -96 -27 -159 -79 -193 -159 -10
-22 -92 -332 -184 -690 -91 -357 -173 -666 -180 -685 -60 -143 -268 -163 -356
-34 -21 31 -62 175 -198 709 -94 369 -180 688 -189 710 -23 52 -95 117 -152
138 -24 10 -325 80 -668 157 -343 78 -641 150 -662 161 -74 37 -113 135 -95
234 11 56 77 122 140 140 28 8 323 76 656 151 333 75 619 142 635 149 60 25
111 72 138 126 18 35 88 291 197 718 94 364 177 675 184 690 54 103 187 138
291 76z m3182 -2420 c45 -19 70 -41 88 -76 8 -14 75 -263 150 -553 75 -291
143 -542 151 -559 18 -35 58 -73 95 -93 14 -7 257 -65 540 -129 328 -73 523
-122 538 -133 98 -72 98 -202 0 -274 -15 -11 -206 -59 -529 -132 -278 -63
-517 -119 -531 -125 -35 -13 -97 -67 -114 -100 -7 -14 -74 -263 -149 -552 -74
-289 -139 -537 -145 -550 -16 -42 -75 -87 -125 -94 -37 -6 -55 -3 -93 16 -26
13 -55 35 -65 49 -10 14 -79 261 -158 569 -103 402 -146 554 -164 582 -48 71
-72 79 -616 202 -278 63 -520 122 -537 130 -53 28 -78 73 -78 142 0 68 25 114
75 140 16 8 249 64 517 125 268 60 508 117 532 126 56 21 103 63 124 111 9 21
77 276 152 567 136 529 150 572 198 597 56 31 95 34 144 14z m-2330 -2465 c17
-10 36 -27 41 -37 6 -10 55 -196 111 -413 55 -217 108 -410 118 -428 9 -18 31
-42 49 -53 21 -13 178 -53 419 -108 264 -60 394 -94 413 -108 15 -11 33 -38
41 -60 13 -36 12 -43 -5 -78 -10 -21 -30 -47 -44 -57 -15 -10 -175 -51 -404
-103 -209 -47 -394 -93 -410 -103 -17 -10 -40 -32 -52 -49 -12 -18 -50 -147
-93 -314 -128 -498 -136 -528 -161 -554 -49 -53 -141 -50 -182 6 -12 15 -60
185 -122 425 -57 220 -110 414 -119 431 -9 17 -31 40 -50 51 -20 13 -173 52
-412 107 -209 47 -390 90 -403 95 -30 13 -62 68 -62 108 0 39 23 83 53 102 12
7 196 52 410 101 403 91 437 103 467 159 5 10 55 195 111 412 55 216 107 407
115 423 29 62 109 83 171 45z"/>
</g>
</svg>
